<?xml version="1.0" encoding="UTF-8"?><svg id="Layer_1" xmlns="http://www.w3.org/2000/svg" viewBox="0 0 591 591"><defs><style>.cls-1{fill:#e4032e;}.cls-1,.cls-2{stroke-width:0px;}.cls-2{fill:#ffde14;}</style></defs><polygon class="cls-1" points="314.2 70.25 335.71 46.54 348.91 75.76 373.84 55.7 382.31 86.63 410.09 70.71 413.61 102.58 443.54 91.21 442.03 123.24 473.36 116.69 466.87 148.09 498.84 146.52 487.51 176.51 519.33 179.97 503.46 207.82 534.34 216.21 514.31 241.23 543.5 254.35 519.8 275.93 546.58 293.46 519.78 311.07 543.5 332.57 514.28 345.77 534.34 370.71 503.42 379.18 519.33 406.95 487.47 410.47 498.83 440.4 466.81 438.9 473.35 470.23 441.97 463.73 443.53 495.71 413.54 484.39 410.08 516.21 382.23 500.33 373.83 531.22 348.81 511.18 335.69 540.37 314.1 516.67 296.58 543.45 278.97 516.65 257.47 540.37 244.27 511.16 219.32 531.22 210.86 500.3 183.08 516.21 179.55 484.34 149.63 495.7 151.14 463.68 119.8 470.23 126.3 438.83 94.33 440.4 105.65 410.4 73.83 406.94 89.7 379.1 58.82 370.7 78.86 345.67 49.66 332.56 73.36 310.98 46.58 293.45 73.36 275.84 49.66 254.35 78.88 241.14 58.82 216.19 89.74 207.72 73.83 179.95 105.69 176.43 94.33 146.5 126.34 148 119.8 116.67 151.19 123.16 149.63 91.19 179.63 102.52 183.08 70.69 210.94 86.57 219.33 55.68 244.35 75.72 257.47 46.52 279.06 70.22 296.59 43.45 314.2 70.25"/><path class="cls-2" d="m77.92,293.45c0-120.76,97.89-218.65,218.65-218.65s218.65,97.89,218.65,218.65-97.89,218.65-218.65,218.65-218.65-97.89-218.65-218.65Z"/><path class="cls-2" d="m77.92,293.45c0-120.76,97.89-218.65,218.65-218.65s218.65,97.89,218.65,218.65-97.89,218.65-218.65,218.65-218.65-97.89-218.65-218.65Z"/><path class="cls-1" d="m147.63,293.34c0-82.2,66.64-148.84,148.85-148.84s148.84,66.64,148.84,148.84-66.64,148.84-148.84,148.84-148.85-66.63-148.85-148.84Z"/><path class="cls-1" d="m147.63,293.34c0-82.2,66.64-148.84,148.85-148.84s148.84,66.64,148.84,148.84-66.64,148.84-148.84,148.84-148.85-66.63-148.85-148.84Z"/><polygon class="cls-2" points="408.19 224.07 403.62 210.88 399.21 224.07 384.96 224.08 396.52 232.25 392.08 245.44 403.64 237.26 415.15 245.44 410.92 232.29 422.29 224.08 408.19 224.07"/><polygon class="cls-2" points="362.38 180.76 357.81 167.58 353.4 180.77 339.14 180.78 350.69 188.95 346.27 202.13 357.82 193.96 369.34 202.13 365.1 188.99 376.47 180.78 362.38 180.76"/><polygon class="cls-2" points="300.32 163.66 295.74 150.47 291.33 163.67 277.07 163.67 288.63 171.85 284.2 185.03 295.76 176.86 307.27 185.03 303.04 171.89 314.4 163.67 300.32 163.66"/><polygon class="cls-2" points="238.99 180.77 234.41 167.58 230.01 180.78 215.75 180.78 227.3 188.95 222.88 202.14 234.44 193.97 245.95 202.14 241.71 188.99 253.08 180.78 238.99 180.77"/><polygon class="cls-2" points="193.18 224.07 188.6 210.88 184.2 224.07 169.94 224.08 181.49 232.25 177.06 245.44 188.62 237.26 200.13 245.44 195.9 232.29 207.27 224.08 193.18 224.07"/><polygon class="cls-2" points="176.2 289.53 171.62 276.34 167.21 289.54 152.95 289.54 164.51 297.72 160.08 310.9 171.64 302.73 183.15 310.9 178.92 297.76 190.28 289.54 176.2 289.53"/><polygon class="cls-2" points="195.7 349.23 191.12 336.04 186.71 349.24 172.45 349.25 184.01 357.42 179.58 370.61 191.14 362.43 202.65 370.61 198.42 357.46 209.78 349.25 195.7 349.23"/><polygon class="cls-2" points="236.47 392.52 231.9 379.34 227.49 392.53 213.23 392.53 224.79 400.71 220.36 413.9 231.92 405.72 243.43 413.9 239.2 400.75 250.56 392.53 236.47 392.52"/><polygon class="cls-2" points="300.32 414.84 295.74 401.65 291.33 414.85 277.07 414.85 288.63 423.02 284.2 436.21 295.76 428.04 307.27 436.21 303.04 423.06 314.4 414.85 300.32 414.84"/><polygon class="cls-2" points="364.17 392.53 359.58 379.34 355.18 392.53 340.91 392.55 352.48 400.71 348.04 413.9 359.6 405.73 371.12 413.9 366.88 400.76 378.25 392.55 364.17 392.53"/><polygon class="cls-2" points="404.95 349.23 400.37 336.05 395.96 349.25 381.7 349.25 393.26 357.42 388.82 370.61 400.39 362.43 411.9 370.61 407.67 357.46 419.03 349.25 404.95 349.23"/><polygon class="cls-2" points="425.91 289.25 421.33 276.06 416.93 289.26 402.67 289.27 414.23 297.44 409.79 310.63 421.36 302.45 432.87 310.63 428.64 297.48 440 289.27 425.91 289.25"/><path class="cls-2" d="m347.77,372.15c-25.87-27.14-79.6-51.16-143.32-60.78l-.3-1.62c-.68-3.86-1.11-7.71-1.31-11.52,65.99,9.47,125.85,34.44,155.22,66.17-3.23,2.81-6.66,5.4-10.29,7.76Z"/><path class="cls-2" d="m308.32,386.57c-11.97-20.39-48.46-40.37-95.01-49.76-2.33-4.47-4.31-9.18-5.92-14.08,53.42,9.2,100.46,32.51,114.01,61.24-2.78.76-5.63,1.39-8.53,1.91-1.52.26-3.04.49-4.56.69Z"/><path class="cls-2" d="m220.75,348.8c25.09,6.72,46.38,18.62,53.42,35.82-21.45-5.29-40.42-18.04-53.42-35.82Z"/><path class="cls-2" d="m298.26,296.95c32.24-8.86,64.78-12.22,91.97-9.76.22,3.27.27,6.53.15,9.75-21.93-2.16-48.38-.35-76.09,5.94,4.74,1.86,9.37,3.79,13.9,5.79,22.68-3.49,44.28-3.03,60.72,1.79-.59,3.2-1.34,6.35-2.26,9.45-11.1-3.33-25.61-4.58-41.9-3.43,12.79,6.47,24.47,13.45,34.79,20.87-1.99,3.76-4.23,7.37-6.71,10.83-38.85-28.15-100.23-51.26-169.93-60.95.28-4.24.84-8.43,1.69-12.53,21.9,3.07,43.25,7.45,63.52,12.96,40.1-13.93,81.77-21.09,118.34-21.26.93,3.11,1.71,6.31,2.33,9.57-31.46-.14-67.74,5.14-104.38,16.45,4.69,1.45,9.3,2.98,13.85,4.55Z"/><polygon class="cls-2" points="408.19 224.07 403.62 210.88 399.21 224.07 384.96 224.08 396.52 232.25 392.08 245.44 403.64 237.26 415.15 245.44 410.92 232.29 422.29 224.08 408.19 224.07"/><polygon class="cls-2" points="362.38 180.76 357.81 167.58 353.4 180.77 339.14 180.78 350.69 188.95 346.27 202.13 357.82 193.96 369.34 202.13 365.1 188.99 376.47 180.78 362.38 180.76"/><polygon class="cls-2" points="300.32 163.66 295.74 150.47 291.33 163.67 277.07 163.67 288.63 171.85 284.2 185.03 295.76 176.86 307.27 185.03 303.04 171.89 314.4 163.67 300.32 163.66"/><polygon class="cls-2" points="238.99 180.77 234.41 167.58 230.01 180.78 215.75 180.78 227.3 188.95 222.88 202.14 234.44 193.97 245.95 202.14 241.71 188.99 253.08 180.78 238.99 180.77"/><polygon class="cls-2" points="193.18 224.07 188.6 210.88 184.2 224.07 169.94 224.08 181.49 232.25 177.06 245.44 188.62 237.26 200.13 245.44 195.9 232.29 207.27 224.08 193.18 224.07"/><polygon class="cls-2" points="176.2 289.53 171.62 276.34 167.21 289.54 152.95 289.54 164.51 297.72 160.08 310.9 171.64 302.73 183.15 310.9 178.92 297.76 190.28 289.54 176.2 289.53"/><polygon class="cls-2" points="195.7 349.23 191.12 336.04 186.71 349.24 172.45 349.25 184.01 357.42 179.58 370.61 191.14 362.43 202.65 370.61 198.42 357.46 209.78 349.25 195.7 349.23"/><polygon class="cls-2" points="236.47 392.52 231.9 379.34 227.49 392.53 213.23 392.53 224.79 400.71 220.36 413.9 231.92 405.72 243.43 413.9 239.2 400.75 250.56 392.53 236.47 392.52"/><polygon class="cls-2" points="300.32 414.84 295.74 401.65 291.33 414.85 277.07 414.85 288.63 423.02 284.2 436.21 295.76 428.04 307.27 436.21 303.04 423.06 314.4 414.85 300.32 414.84"/><polygon class="cls-2" points="364.17 392.53 359.58 379.34 355.18 392.53 340.91 392.55 352.48 400.71 348.04 413.9 359.6 405.73 371.12 413.9 366.88 400.76 378.25 392.55 364.17 392.53"/><polygon class="cls-2" points="404.95 349.23 400.37 336.05 395.96 349.25 381.7 349.25 393.26 357.42 388.82 370.61 400.39 362.43 411.9 370.61 407.67 357.46 419.03 349.25 404.95 349.23"/><polygon class="cls-2" points="425.91 289.25 421.33 276.06 416.93 289.26 402.67 289.27 414.23 297.44 409.79 310.63 421.36 302.45 432.87 310.63 428.64 297.48 440 289.27 425.91 289.25"/><path class="cls-2" d="m347.77,372.15c-25.87-27.14-79.6-51.16-143.32-60.78l-.3-1.62c-.68-3.86-1.11-7.71-1.31-11.52,65.99,9.47,125.85,34.44,155.22,66.17-3.23,2.81-6.66,5.4-10.29,7.76Z"/><path class="cls-2" d="m308.32,386.57c-11.97-20.39-48.46-40.37-95.01-49.76-2.33-4.47-4.31-9.18-5.92-14.08,53.42,9.2,100.46,32.51,114.01,61.24-2.78.76-5.63,1.39-8.53,1.91-1.52.26-3.04.49-4.56.69Z"/><path class="cls-2" d="m220.75,348.8c25.09,6.72,46.38,18.62,53.42,35.82-21.45-5.29-40.42-18.04-53.42-35.82Z"/><path class="cls-2" d="m298.26,296.95c32.24-8.86,64.78-12.22,91.97-9.76.22,3.27.27,6.53.15,9.75-21.93-2.16-48.38-.35-76.09,5.94,4.74,1.86,9.37,3.79,13.9,5.79,22.68-3.49,44.28-3.03,60.72,1.79-.59,3.2-1.34,6.35-2.26,9.45-11.1-3.33-25.61-4.58-41.9-3.43,12.79,6.47,24.47,13.45,34.79,20.87-1.99,3.76-4.23,7.37-6.71,10.83-38.85-28.15-100.23-51.26-169.93-60.95.28-4.24.84-8.43,1.69-12.53,21.9,3.07,43.25,7.45,63.52,12.96,40.1-13.93,81.77-21.09,118.34-21.26.93,3.11,1.71,6.31,2.33,9.57-31.46-.14-67.74,5.14-104.38,16.45,4.69,1.45,9.3,2.98,13.85,4.55Z"/><path class="cls-1" d="m205.51,458.23c-1.29-.72-2.13-1.79-2.54-3.21-.4-1.42-.24-2.77.48-4.06.72-1.29,1.79-2.13,3.21-2.53,1.42-.4,2.77-.24,4.06.48,1.29.72,2.13,1.79,2.53,3.21.4,1.42.24,2.77-.48,4.06-.72,1.28-1.78,2.13-3.2,2.53-1.41.41-2.77.25-4.07-.48Z"/><path class="cls-1" d="m159.63,436.89l5.33-7.42.57.48c-.9,2.21-1.27,4.14-1.1,5.79.23,2.38,1.37,4.43,3.43,6.18,2.8,2.38,5.87,3.08,9.21,2.11,2.81-.83,5.31-2.54,7.51-5.12,1.78-2.09,3-4.35,3.66-6.76.66-2.42.67-4.59.05-6.51-.63-1.92-1.63-3.47-3.02-4.64-.81-.69-1.68-1.25-2.61-1.69-.93-.44-1.92-.76-2.96-.95l-5.4,6.35c-.94,1.1-1.47,1.89-1.59,2.38-.12.48-.08.96.12,1.44.2.48.74,1.09,1.63,1.85l-.52.61-8.51-7.23.52-.61.41.34c.84.71,1.66.93,2.45.63.56-.21,1.33-.91,2.34-2.08l5.72-6.73c1.81.39,3.46.94,4.93,1.66,1.48.71,2.96,1.7,4.44,2.96,4.25,3.61,6.31,7.7,6.2,12.3-.08,3.45-1.26,6.5-3.53,9.17-1.64,1.93-3.69,3.38-6.12,4.37-2.89,1.17-5.79,1.5-8.67,1-2.41-.43-4.71-1.58-6.9-3.44-.8-.68-1.47-1.36-2.01-2.05-.54-.68-1.23-1.76-2.05-3.22-.41-.74-.72-1.2-.93-1.38-.2-.17-.46-.23-.77-.16-.31.06-.71.36-1.21.88l-.6-.51Z"/><path class="cls-1" d="m148.45,421.7l8.74-7.33-4.08-4.86c-1.06-1.26-1.95-1.94-2.69-2.04-.97-.14-2.12.28-3.43,1.27l-.51-.6,7.69-6.45.51.6c-.95,1.05-1.51,1.78-1.69,2.19-.21.52-.24,1.09-.09,1.71.16.63.62,1.4,1.4,2.33l4.08,4.85,7.28-6.11c.98-.82,1.54-1.36,1.67-1.62.14-.27.18-.56.12-.88-.06-.32-.34-.78-.85-1.39l-3.15-3.74c-1.05-1.25-1.9-2.08-2.54-2.5-.65-.42-1.45-.68-2.4-.77-1.24-.11-2.83.05-4.78.49l-.55-.65,7.14-2.74,14.3,17.02-.6.5-.66-.78c-.44-.52-.98-.91-1.62-1.17-.47-.2-.93-.22-1.38-.05-.45.17-1.21.7-2.29,1.6l-14.36,12.05c-1.4,1.17-2.15,2.04-2.24,2.59-.11.76.22,1.59.99,2.5l.66.78-.6.51-14.3-17.01,4.64-4.31.53.63c-.97,1.21-1.56,2.13-1.76,2.77-.2.64-.19,1.33.04,2.06.2.57.76,1.4,1.69,2.5l5.09,6.06Z"/><path class="cls-1" d="m122.56,389.1l8.51-5.2.41.67c-1.5,1.22-2.56,2.4-3.19,3.55-.63,1.16-.9,2.42-.83,3.81.07,1.39.44,2.64,1.12,3.75.77,1.26,1.79,2.07,3.06,2.41,1.27.36,2.4.23,3.38-.37.75-.46,1.27-1.14,1.57-2.04.45-1.31.57-3.83.35-7.57-.17-3.05-.19-5.2-.04-6.44.14-1.24.53-2.36,1.14-3.37.62-1,1.42-1.8,2.4-2.4,1.86-1.14,3.91-1.4,6.15-.78,2.23.62,4.04,2.07,5.44,4.34.44.71.79,1.42,1.07,2.11.17.41.42,1.33.76,2.74.34,1.41.61,2.27.8,2.59.19.31.42.48.71.55.29.06.74-.03,1.36-.3l.41.67-8.44,5.16-.41-.67c1.57-1.39,2.64-2.62,3.19-3.69.55-1.07.78-2.33.69-3.78-.09-1.45-.53-2.82-1.33-4.13-.93-1.51-2.06-2.46-3.39-2.85-1.34-.39-2.55-.25-3.64.42-.6.37-1.12.91-1.53,1.62-.41.71-.67,1.58-.77,2.61-.07.69-.06,2.45.05,5.27.11,2.83.08,4.9-.07,6.22s-.52,2.47-1.09,3.44c-.56.98-1.36,1.78-2.37,2.4-1.77,1.08-3.7,1.33-5.81.76-2.1-.57-3.8-1.9-5.08-4-.8-1.31-1.33-2.89-1.58-4.74-.11-.86-.25-1.43-.42-1.71-.19-.31-.44-.51-.75-.6-.31-.08-.79-.02-1.43.21l-.41-.67Z"/><path class="cls-1" d="m108.01,356.94l8.83-4.32.25.61c-2.38,1.92-3.87,3.88-4.44,5.88-.58,2-.43,4.06.43,6.17.73,1.77,1.83,3.19,3.32,4.25,1.48,1.06,3.38,1.6,5.68,1.62,2.31.02,4.92-.58,7.85-1.77,2.42-.99,4.35-2.23,5.81-3.73,1.45-1.5,2.34-3.22,2.65-5.16.31-1.94.06-3.9-.76-5.9-.71-1.73-1.7-3.1-2.99-4.13-1.28-1.02-3.35-1.88-6.21-2.56l.14-.77c2.92.37,5.3,1.22,7.13,2.55,1.83,1.33,3.25,3.22,4.26,5.68,1.81,4.42,1.57,8.52-.72,12.28-1.7,2.81-4.2,4.89-7.51,6.24-2.67,1.09-5.36,1.49-8.08,1.21-2.72-.28-5.12-1.22-7.21-2.81-2.09-1.59-3.63-3.62-4.65-6.11-.79-1.93-1.1-4.02-.92-6.28.06-.67.05-1.12-.05-1.36-.14-.35-.4-.61-.75-.77-.49-.2-1.09-.24-1.77-.13l-.28-.69Z"/><path class="cls-1" d="m117.18,337.58l-2.73-13.11-8.08,1.68c-1.44.3-2.38.59-2.8.87-.32.21-.56.56-.72,1.06-.21.67-.24,1.33-.1,2l.21,1-.77.16-2.51-12.08.77-.16.21,1c.14.66.43,1.26.87,1.79.31.4.71.63,1.2.7.48.06,1.42-.05,2.81-.34l18.23-3.78c1.43-.3,2.36-.59,2.78-.86.32-.21.56-.56.72-1.04.21-.68.24-1.35.1-2.02l-.21-1,.77-.16,2.51,12.07-.77.16-.21-1c-.24-1.15-.76-1.92-1.54-2.31-.52-.25-1.62-.2-3.32.15l-8.6,1.79,2.73,13.11,8.6-1.79c1.43-.3,2.36-.58,2.78-.86.32-.21.56-.57.71-1.06.21-.67.24-1.34.11-2l-.21-1.02.77-.16,2.52,12.09-.77.16-.21-1c-.24-1.17-.76-1.94-1.55-2.33-.51-.24-1.62-.19-3.31.17l-18.23,3.79c-1.44.3-2.38.59-2.8.87-.32.21-.56.56-.72,1.04-.21.68-.24,1.35-.1,2.02l.21,1-.77.16-2.52-12.09.77-.16.21,1.02c.14.66.43,1.26.87,1.79.31.38.71.61,1.2.68.49.07,1.43-.04,2.81-.33l8.08-1.68Z"/><path class="cls-1" d="m91.04,292.5c-.01-.64.2-1.18.65-1.64.44-.45.99-.69,1.63-.7.64-.01,1.19.2,1.64.64.45.44.69.98.7,1.61.01.64-.2,1.19-.64,1.65-.44.46-.98.7-1.61.71-.64.01-1.19-.2-1.65-.65-.46-.44-.7-.99-.71-1.62Zm.14,7.5c-.01-.65.2-1.21.65-1.66.44-.45.99-.69,1.63-.7.64-.01,1.19.21,1.64.65.45.45.69.98.7,1.6.01.64-.2,1.19-.64,1.65-.44.46-.98.7-1.61.71-.64.01-1.19-.2-1.65-.64-.46-.44-.7-.98-.71-1.61Zm8.13-8.01h-.79s-.18-10.19-.18-10.19h.79s.02,1.07.02,1.07c.02,1.14.51,2,1.47,2.59.45.29,1.47.42,3.07.39l11.7-.21c2.89-.05,5.14.19,6.75.74,1.61.54,3,1.65,4.17,3.31,1.17,1.66,1.79,3.93,1.84,6.82.06,3.15-.45,5.54-1.51,7.19-1.06,1.65-2.51,2.83-4.34,3.54-1.25.47-3.62.75-7.09.81l-11.27.2c-1.77.03-2.93.3-3.47.8-.54.5-.81,1.29-.79,2.39l.02,1.08-.79.02-.23-12.46h.79s.02,1.09.02,1.09c.02,1.19.41,2.03,1.17,2.53.52.35,1.58.5,3.2.47l12.57-.23c1.12-.02,2.4-.15,3.85-.38,1.44-.23,2.56-.62,3.36-1.18.8-.55,1.45-1.34,1.96-2.36.51-1.02.74-2.27.72-3.74-.03-1.88-.48-3.56-1.33-5.04-.85-1.47-1.92-2.47-3.21-2.99-1.29-.52-3.47-.75-6.54-.7l-11.68.21c-1.8.03-2.92.25-3.37.66-.61.56-.91,1.39-.89,2.48l.02,1.08Z"/><path class="cls-1" d="m102.46,251.65l6.74.66-.12.8c-1.2-.02-2.07.07-2.62.26-.88.32-1.56.81-2.05,1.47-.49.67-.82,1.59-1,2.76l-.59,4.02,21.81,3.19c1.75.26,2.88.23,3.37-.09.67-.45,1.08-1.22,1.24-2.33l.14-.99.78.11-1.77,12.1-.78-.11.15-1.01c.18-1.21-.06-2.12-.72-2.73-.4-.37-1.41-.68-3.01-.91l-21.81-3.19-.5,3.43c-.2,1.33-.23,2.29-.12,2.88.16.77.58,1.47,1.26,2.1.68.63,1.66,1.09,2.94,1.38l-.12.8-6.65-1.31,3.41-23.29Z"/><path class="cls-1" d="m111.11,221.93l20.24,26.14,3.52-11.28c.54-1.73.58-3.18.11-4.34-.47-1.16-1.75-2.46-3.84-3.9l.33-.63,6.89,3.57-6.99,22.41-.75-.23-19.64-25.49-2.75,8.81c-.46,1.46-.63,2.57-.51,3.33.11.75.42,1.4.91,1.93.49.53,1.52,1.2,3.09,2l-.24.77-6.71-2.71,6.35-20.36Z"/><path class="cls-1" d="m124.61,193.54l6.19,2.74-.36.72c-1.13-.39-1.99-.58-2.57-.57-.93.03-1.74.28-2.41.76-.67.48-1.28,1.25-1.81,2.31l-1.82,3.63,19.72,9.84c1.59.79,2.66,1.11,3.23.97.77-.22,1.41-.83,1.91-1.83l.45-.89.7.35-5.47,10.93-.7-.35.46-.91c.54-1.09.6-2.03.17-2.81-.27-.48-1.12-1.08-2.57-1.8l-19.72-9.84-1.55,3.1c-.6,1.21-.94,2.1-1.02,2.7-.09.78.09,1.58.54,2.39.45.81,1.24,1.55,2.36,2.22l-.36.72-5.9-3.33,10.53-21.05Z"/><path class="cls-1" d="m134.24,181.85l9.25,6.66,3.71-5.14c.96-1.33,1.4-2.37,1.32-3.11-.1-.98-.79-1.98-2.07-3.01l.46-.64,8.15,5.87-.46.64c-1.26-.66-2.1-1.02-2.54-1.1-.55-.08-1.11.03-1.68.33-.57.31-1.21.95-1.91,1.92l-3.71,5.14,7.71,5.56c1.04.74,1.7,1.15,1.99,1.22.29.07.58.04.88-.1.3-.13.68-.52,1.14-1.17l2.86-3.97c.95-1.32,1.56-2.35,1.8-3.08.25-.73.3-1.57.16-2.51-.2-1.22-.75-2.73-1.65-4.51l.5-.69,4.41,6.25-13,18.02-.64-.46.6-.83c.4-.55.64-1.17.74-1.86.08-.5-.02-.95-.29-1.35-.27-.4-.98-1.01-2.12-1.83l-15.21-10.95c-1.48-1.07-2.51-1.58-3.07-1.53-.76.08-1.49.61-2.18,1.57l-.6.83-.64-.46,13-18.02,5.31,3.44-.49.67c-1.4-.64-2.44-.99-3.12-1.02s-1.34.14-1.99.54c-.5.34-1.18,1.08-2.01,2.24l-4.63,6.42Z"/><path class="cls-1" d="m171.46,140.5l-.51-.6,7.76-6.63.51.6-.83.7c-.86.74-1.22,1.66-1.06,2.78.06.53.61,1.4,1.65,2.62l7.6,8.89c1.88,2.2,3.12,4.09,3.72,5.67.6,1.59.63,3.36.1,5.31-.54,1.96-1.9,3.88-4.1,5.75-2.4,2.04-4.57,3.18-6.52,3.41-1.95.23-3.78-.14-5.5-1.09-1.16-.66-2.88-2.32-5.13-4.96l-7.33-8.57c-1.15-1.35-2.09-2.07-2.82-2.17-.73-.1-1.51.2-2.34.91l-.83.7-.51-.6,9.48-8.09.51.6-.84.72c-.91.77-1.31,1.61-1.21,2.51.06.62.62,1.54,1.67,2.77l8.17,9.55c.73.85,1.64,1.76,2.73,2.73,1.1.97,2.11,1.58,3.05,1.85.94.27,1.96.27,3.07,0,1.11-.26,2.23-.87,3.35-1.83,1.43-1.22,2.45-2.63,3.05-4.22.6-1.59.69-3.05.27-4.38-.42-1.33-1.62-3.16-3.61-5.48l-7.59-8.88c-1.17-1.37-2.05-2.1-2.65-2.18-.83-.11-1.66.18-2.49.89l-.83.7Z"/><path class="cls-1" d="m223.34,140.1l-6.65,3.88-15.24-6.71c-.61.39-1.11.7-1.5.93-.16.09-.33.19-.52.29-.19.1-.38.2-.59.31l4.23,7.23c.92,1.57,1.66,2.44,2.22,2.62.78.27,1.64.13,2.57-.42l.97-.57.4.68-10.67,6.23-.4-.68.94-.55c1.05-.62,1.6-1.4,1.66-2.35.03-.53-.36-1.5-1.19-2.92l-9.41-16.08c-.92-1.57-1.66-2.44-2.22-2.62-.79-.26-1.66-.11-2.6.44l-.94.55-.4-.68,9.07-5.3c2.64-1.55,4.71-2.49,6.19-2.84,1.48-.35,2.96-.26,4.44.26,1.48.52,2.64,1.5,3.48,2.93.9,1.53,1.17,3.15.83,4.86-.34,1.71-1.42,3.41-3.24,5.09l9.32,4.13c2.13.95,3.78,1.45,4.94,1.5,1.16.04,2.46-.26,3.91-.9l.4.68Zm-25.18-2.46c.23-.14.44-.25.61-.34.17-.09.32-.17.43-.24,2.37-1.39,3.87-2.95,4.47-4.68.6-1.73.44-3.4-.49-4.99-.91-1.55-2.13-2.53-3.68-2.94-1.54-.4-3.12-.14-4.72.8-.71.41-1.6,1.09-2.68,2.03l6.06,10.35Z"/><path class="cls-1" d="m231.05,105.67l3.63,9.29-.73.29c-.94-1.69-1.92-2.94-2.94-3.76-1.03-.82-2.23-1.31-3.61-1.49-1.38-.18-2.68-.03-3.89.45-1.37.54-2.34,1.4-2.91,2.59-.57,1.19-.65,2.32-.23,3.39.32.82.9,1.45,1.73,1.9,1.21.67,3.67,1.23,7.4,1.67,3.04.37,5.16.73,6.36,1.09,1.2.36,2.24.93,3.11,1.72.88.78,1.53,1.71,1.94,2.78.8,2.03.69,4.09-.31,6.18-1,2.09-2.75,3.62-5.23,4.59-.78.3-1.54.53-2.27.68-.44.09-1.38.19-2.83.27-1.45.09-2.35.2-2.69.33-.33.13-.55.33-.67.6-.12.27-.1.74.06,1.39l-.73.29-3.6-9.21.73-.29c1.1,1.79,2.12,3.05,3.08,3.78.96.73,2.16,1.18,3.6,1.34,1.44.17,2.88-.03,4.3-.59,1.65-.65,2.79-1.59,3.4-2.84.62-1.24.69-2.46.23-3.65-.26-.66-.7-1.26-1.33-1.79-.63-.53-1.44-.94-2.43-1.22-.67-.2-2.41-.49-5.21-.87-2.8-.39-4.84-.78-6.11-1.16-1.27-.38-2.34-.94-3.2-1.67-.86-.73-1.51-1.65-1.95-2.75-.76-1.93-.67-3.88.27-5.85.93-1.97,2.54-3.4,4.83-4.29,1.43-.56,3.08-.8,4.95-.72.87.04,1.46,0,1.76-.12.34-.13.58-.35.72-.64.14-.29.15-.77.04-1.44l.73-.29Z"/><path class="cls-1" d="m251.34,116.4l1.93,8.17c.42,1.76.87,2.82,1.36,3.15.67.48,1.53.6,2.6.35l1.08-.25.18.76-12.03,2.83-.18-.76,1.06-.25c1.19-.28,1.94-.87,2.27-1.76.17-.49.07-1.54-.3-3.14l-4.27-18.13c-.41-1.76-.86-2.82-1.33-3.16-.68-.48-1.55-.6-2.62-.35l-1.06.25-.18-.77,10.29-2.42c2.51-.59,4.56-.8,6.13-.62,1.57.18,3,.76,4.28,1.75,1.28.99,2.12,2.33,2.52,4.02.54,2.29.22,4.33-.95,6.12-1.17,1.79-3.14,3.01-5.9,3.66-.68.16-1.42.28-2.23.37-.81.09-1.69.14-2.63.16Zm-.28-1.18c.76-.03,1.44-.08,2.02-.15.58-.06,1.07-.14,1.47-.24,1.44-.34,2.54-1.18,3.33-2.54.78-1.36.96-2.92.55-4.68-.29-1.21-.8-2.28-1.54-3.21-.74-.92-1.63-1.54-2.66-1.84-1.03-.3-2.13-.32-3.29-.04-.7.17-1.58.51-2.62,1.03l2.75,11.67Z"/><path class="cls-1" d="m298.74,123.68l-7.68.57-10.73-12.72c-.72.08-1.31.14-1.76.17-.19.01-.38.03-.6.03-.21,0-.43.02-.66.02l.61,8.35c.13,1.81.41,2.92.84,3.33.58.58,1.41.84,2.49.75l1.12-.08.06.78-12.33.91-.06-.78,1.08-.08c1.22-.09,2.06-.55,2.52-1.38.26-.46.34-1.51.21-3.15l-1.37-18.57c-.13-1.81-.42-2.92-.84-3.33-.6-.58-1.44-.83-2.53-.75l-1.08.08-.06-.78,10.48-.77c3.06-.23,5.32-.17,6.81.17,1.48.34,2.77,1.07,3.87,2.19,1.1,1.12,1.71,2.51,1.83,4.16.13,1.77-.33,3.34-1.39,4.73-1.06,1.39-2.77,2.44-5.15,3.15l6.55,7.81c1.5,1.79,2.76,2.97,3.78,3.52,1.02.55,2.33.85,3.91.91l.06.78Zm-21.52-13.27c.27-.02.5-.03.7-.04.2,0,.36-.01.49-.03,2.74-.2,4.77-.95,6.07-2.24,1.31-1.29,1.89-2.85,1.76-4.69-.13-1.79-.8-3.21-2.01-4.25-1.21-1.04-2.74-1.49-4.59-1.36-.82.06-1.92.28-3.3.65l.88,11.96Z"/><path class="cls-1" d="m322.05,97.91l.08-.78,10.16,1.08-.09.78-1.08-.11c-1.13-.12-2.04.26-2.75,1.14-.34.41-.6,1.4-.77,3l-1.23,11.63c-.31,2.87-.83,5.07-1.57,6.6-.74,1.52-2.01,2.77-3.8,3.72-1.8.96-4.13,1.28-7,.98-3.13-.33-5.46-1.12-6.96-2.38-1.51-1.26-2.5-2.84-2.98-4.74-.32-1.3-.29-3.68.07-7.13l1.19-11.21c.18-1.76.06-2.94-.36-3.54-.43-.6-1.19-.96-2.27-1.07l-1.08-.11.08-.78,12.4,1.31-.08.78-1.1-.12c-1.19-.13-2.08.16-2.66.85-.41.47-.69,1.51-.86,3.11l-1.33,12.49c-.12,1.11-.15,2.4-.1,3.86.06,1.46.3,2.62.75,3.48.45.86,1.16,1.61,2.11,2.23.95.63,2.16,1.02,3.63,1.18,1.88.2,3.6-.03,5.17-.69,1.57-.66,2.69-1.6,3.37-2.82.68-1.22,1.18-3.35,1.5-6.39l1.23-11.61c.19-1.79.11-2.93-.24-3.42-.49-.68-1.27-1.08-2.35-1.19l-1.08-.11Z"/><path class="cls-1" d="m337.49,99.15l7.5,2.23,10.73,25.75,4.75-15.93c.51-1.7.63-2.81.37-3.35-.33-.72-1.04-1.24-2.13-1.57l-.96-.28.23-.75,9.63,2.86-.23.75-.98-.29c-1.17-.35-2.1-.24-2.8.32-.43.35-.88,1.29-1.34,2.84l-6.94,23.29-.74-.22-11.6-27.67-5.07,17.01c-.51,1.7-.64,2.81-.4,3.34.35.72,1.06,1.25,2.13,1.56l.98.29-.22.75-9.63-2.86.23-.75.96.29c1.18.35,2.12.25,2.83-.31.43-.34.87-1.29,1.34-2.84l5.72-19.21c-.52-1.18-.95-1.97-1.27-2.4-.32-.42-.85-.88-1.57-1.38-.36-.24-.94-.48-1.74-.72l.23-.75Z"/><path class="cls-1" d="m397.32,121.85l-3.48,8.44-.66-.34c.37-2.36.28-4.32-.26-5.89-.77-2.26-2.36-4-4.76-5.22-3.28-1.67-6.43-1.64-9.45.07-2.54,1.46-4.59,3.69-6.13,6.71-1.25,2.45-1.92,4.93-2,7.43-.08,2.5.4,4.62,1.46,6.34,1.06,1.72,2.39,3,4.01,3.82.94.48,1.92.83,2.93,1.04,1.01.21,2.04.29,3.1.24l3.79-7.42c.66-1.29.99-2.18,1-2.68,0-.5-.14-.96-.45-1.37-.31-.42-.97-.89-2.01-1.42l.37-.72,9.95,5.07-.37.72-.48-.24c-.98-.5-1.83-.52-2.53-.05-.49.34-1.09,1.2-1.8,2.57l-4.01,7.86c-1.85.04-3.58-.12-5.18-.47-1.6-.36-3.27-.98-5-1.86-4.96-2.53-7.92-6.05-8.87-10.54-.72-3.37-.28-6.62,1.32-9.73,1.15-2.26,2.8-4.15,4.95-5.66,2.54-1.8,5.28-2.8,8.21-2.97,2.44-.14,4.95.45,7.51,1.75.94.48,1.74.99,2.43,1.53.69.54,1.6,1.43,2.74,2.66.57.63.98,1,1.22,1.12.24.12.5.12.79-.02.28-.13.6-.51.97-1.14l.7.36Z"/><path class="cls-1" d="m421.65,138.65l-5.91,8.03-.64-.47c.93-1.69,1.47-3.19,1.61-4.49.14-1.31-.08-2.59-.67-3.85-.59-1.26-1.41-2.27-2.46-3.05-1.19-.88-2.44-1.24-3.75-1.08-1.31.15-2.31.69-2.99,1.62-.52.71-.75,1.53-.69,2.48.08,1.38.92,3.76,2.53,7.14,1.31,2.76,2.14,4.74,2.47,5.95.34,1.21.4,2.39.21,3.55-.19,1.16-.63,2.2-1.31,3.13-1.29,1.76-3.09,2.77-5.4,3.04-2.3.27-4.53-.39-6.67-1.97-.68-.5-1.27-1.01-1.79-1.55-.32-.32-.89-1.06-1.74-2.24-.85-1.18-1.42-1.88-1.72-2.1-.29-.21-.57-.29-.87-.24-.29.05-.67.31-1.15.79l-.63-.47,5.86-7.96.63.47c-.93,1.89-1.45,3.43-1.55,4.62-.11,1.2.15,2.45.79,3.76.63,1.31,1.56,2.42,2.79,3.32,1.43,1.05,2.83,1.5,4.22,1.36s2.46-.73,3.21-1.76c.42-.57.69-1.26.8-2.08.12-.81.03-1.71-.26-2.7-.2-.67-.88-2.29-2.04-4.87-1.17-2.57-1.93-4.5-2.28-5.78-.35-1.28-.45-2.48-.3-3.6.16-1.12.59-2.16,1.29-3.11,1.23-1.67,2.93-2.63,5.09-2.9,2.17-.26,4.24.33,6.21,1.79,1.23.91,2.32,2.17,3.26,3.79.43.75.77,1.23,1.04,1.42.3.22.6.31.92.27.32-.04.73-.28,1.24-.74l.63.47Z"/><path class="cls-1" d="m432.32,168.73c1.1,1.72,1.67,3.26,1.7,4.63.04,1.89-.61,3.5-1.95,4.83-1.02,1.01-2.32,1.65-3.89,1.92-1.57.28-3.12.06-4.66-.64-1.54-.7-3.46-2.21-5.74-4.52l-9.57-9.68.56-.55.77.77c.85.86,1.73,1.2,2.64,1.04.59-.12,1.45-.74,2.6-1.88l13.26-13.09c1.27-1.26,1.93-2.19,1.97-2.81.06-.83-.3-1.63-1.07-2.41l-.76-.77.56-.55,8.77,8.86c1.63,1.65,2.83,3.1,3.57,4.33,1.13,1.87,1.63,3.66,1.5,5.37-.14,1.71-.81,3.15-2.01,4.34-1.03,1.02-2.26,1.61-3.69,1.79-1.43.18-2.94-.15-4.54-.98Zm-16.83.95c.88,1.44,1.89,2.73,3.02,3.87,1.8,1.82,3.59,2.81,5.36,2.95,1.77.15,3.26-.38,4.47-1.57.8-.79,1.35-1.76,1.66-2.92.31-1.16.19-2.44-.36-3.84-.54-1.4-1.52-2.81-2.95-4.26-.61-.62-1.15-1.15-1.61-1.57-.46-.42-.85-.75-1.17-.97l-8.41,8.31Zm9.81-9.68c.3.44.66.92,1.11,1.44.43.51.94,1.06,1.51,1.63,1.46,1.47,2.71,2.42,3.76,2.85,1.05.43,2.09.51,3.14.26,1.05-.25,1.96-.76,2.73-1.53,1.2-1.19,1.74-2.69,1.63-4.5-.12-1.81-1.11-3.66-2.96-5.54-1-1.01-2-1.8-3.02-2.39l-7.89,7.79Z"/><path class="cls-1" d="m455.61,177.29l-9.33,6.55,3.64,5.19c.94,1.35,1.78,2.1,2.51,2.27.95.23,2.13-.1,3.53-.97l.45.64-8.22,5.77-.45-.64c1.03-.97,1.66-1.65,1.87-2.04.26-.5.34-1.06.23-1.7-.1-.64-.5-1.45-1.19-2.44l-3.64-5.19-7.78,5.46c-1.04.73-1.65,1.22-1.81,1.48-.16.25-.23.54-.2.87.03.33.27.81.72,1.46l2.82,4c.94,1.33,1.71,2.24,2.31,2.71.61.47,1.39.8,2.32.97,1.23.21,2.83.19,4.81-.07l.49.7-7.35,2.12-12.77-18.18.64-.45.59.84c.39.56.9.99,1.52,1.3.45.24.9.3,1.37.17.46-.13,1.27-.59,2.42-1.4l15.35-10.76c1.5-1.05,2.32-1.85,2.45-2.4.17-.74-.08-1.6-.77-2.58l-.59-.83.64-.45,12.77,18.18-4.99,3.89-.48-.68c1.07-1.11,1.74-1.98,1.99-2.6.26-.62.3-1.31.14-2.06-.15-.58-.64-1.46-1.46-2.64l-4.55-6.47Z"/><path class="cls-1" d="m480.28,217.38l-32.65-5.29,5.14,10.65c.79,1.63,1.75,2.71,2.89,3.24,1.14.53,2.97.61,5.48.23l.19.69-7.47,2.09-10.21-21.14.71-.34,31.77,5.22-4.01-8.31c-.66-1.38-1.3-2.3-1.9-2.78-.6-.48-1.26-.74-1.99-.79-.73-.05-1.93.16-3.62.65l-.35-.73,6.75-2.6,9.27,19.2Z"/><path class="cls-1" d="m483.73,232.36l-10.94,3.24,1.8,6.07c.47,1.58,1.02,2.56,1.65,2.95.83.52,2.06.59,3.66.2l.22.75-9.63,2.85-.23-.75c1.29-.59,2.1-1.03,2.42-1.34.4-.38.66-.89.77-1.53.11-.64,0-1.54-.35-2.69l-1.8-6.08-9.12,2.7c-1.22.36-1.95.64-2.18.83-.24.19-.39.44-.47.76-.08.32,0,.86.23,1.62l1.39,4.69c.46,1.56.91,2.67,1.34,3.31.43.64,1.06,1.19,1.89,1.66,1.09.59,2.62,1.08,4.58,1.46l.24.81-7.64-.33-6.31-21.3.75-.22.29.98c.19.65.53,1.22,1.02,1.72.35.37.76.57,1.24.6.48.03,1.4-.16,2.74-.56l17.97-5.32c1.76-.52,2.78-1.02,3.09-1.49.4-.65.43-1.55.09-2.69l-.29-.98.75-.22,6.31,21.3-5.97,2.1-.24-.8c1.37-.72,2.28-1.33,2.72-1.83.44-.51.7-1.14.79-1.91.04-.6-.14-1.59-.54-2.97l-2.25-7.58Z"/><path class="cls-1" d="m465.19,270.17l-.77.13-2.03-12.18.77-.13.17,1.01c.2,1.17.68,1.97,1.46,2.39.5.26,1.61.25,3.31-.04l18.38-3.07c1.44-.24,2.38-.49,2.81-.75.33-.2.58-.54.76-1.01.23-.67.29-1.34.18-2.01l-.17-1.01.78-.13,2.04,12.18-.78.13-.17-1.03c-.19-1.16-.68-1.95-1.45-2.37-.51-.27-1.62-.27-3.32.01l-18.38,3.07c-1.44.24-2.38.49-2.81.75-.33.2-.58.54-.75,1.03-.24.66-.3,1.32-.19,1.99l.17,1.03Z"/><path class="cls-1" d="m495.61,296.29l-9.78,1.06-.03-.66c2.9-1,4.96-2.34,6.18-4.02,1.23-1.68,1.79-3.66,1.69-5.94-.08-1.91-.64-3.62-1.67-5.12-1.03-1.5-2.63-2.65-4.8-3.45-2.16-.8-4.83-1.13-7.98-1-2.61.11-4.85.62-6.73,1.53-1.88.91-3.29,2.23-4.24,3.95-.95,1.72-1.38,3.66-1.29,5.81.08,1.87.55,3.5,1.41,4.9.86,1.4,2.52,2.9,4.97,4.52l-.4.68c-2.63-1.34-4.57-2.94-5.85-4.82-1.27-1.88-1.96-4.14-2.07-6.79-.2-4.77,1.42-8.54,4.86-11.31,2.56-2.06,5.62-3.17,9.19-3.32,2.88-.12,5.55.42,8.01,1.61,2.47,1.19,4.41,2.88,5.83,5.09,1.42,2.2,2.18,4.64,2.29,7.32.08,2.08-.34,4.16-1.28,6.22-.28.61-.43,1.04-.41,1.29.02.38.17.71.45.98.4.35.94.59,1.63.72l.03.74Z"/><path class="cls-1" d="m480.56,311.22l-1.72,13.28,8.19,1.06c1.46.19,2.44.23,2.92.1.37-.09.71-.35,1.03-.77.41-.56.67-1.18.75-1.85l.13-1.01.78.1-1.58,12.23-.78-.1.13-1.01c.09-.67,0-1.34-.24-1.98-.17-.48-.47-.83-.9-1.05-.44-.22-1.36-.42-2.77-.6l-18.46-2.39c-1.45-.19-2.42-.22-2.91-.1-.37.09-.71.34-1.02.74-.42.58-.67,1.2-.76,1.88l-.13,1.01-.78-.1,1.58-12.23.78.1-.13,1.01c-.15,1.16.08,2.06.7,2.68.41.41,1.47.73,3.18.95l8.72,1.12,1.72-13.28-8.72-1.12c-1.45-.19-2.42-.22-2.9-.1-.37.09-.72.35-1.02.77-.42.56-.67,1.17-.76,1.85l-.14,1.03-.78-.1,1.59-12.25.78.1-.14,1.01c-.15,1.18.08,2.08.71,2.7.4.4,1.46.71,3.18.93l18.46,2.39c1.46.19,2.44.23,2.93.1.37-.09.71-.34,1.02-.74.42-.58.67-1.2.76-1.88l.13-1.01.78.1-1.59,12.25-.78-.1.13-1.03c.09-.67,0-1.34-.23-1.98-.17-.47-.47-.81-.91-1.04-.43-.23-1.35-.43-2.76-.62l-8.18-1.06Z"/><path class="cls-1" d="m489.9,340.12l-2.44,7.43-26.06,10.01,15.81,5.18c1.69.55,2.8.71,3.34.47.73-.31,1.27-1.01,1.63-2.09l.31-.95.75.24-3.13,9.54-.75-.24.32-.97c.38-1.16.3-2.1-.24-2.81-.34-.44-1.27-.91-2.81-1.41l-23.11-7.57.24-.73,28-10.83-16.88-5.53c-1.69-.55-2.8-.71-3.34-.49-.73.33-1.28,1.02-1.63,2.09l-.32.97-.75-.25,3.13-9.53.75.24-.31.95c-.38,1.17-.31,2.12.23,2.83.34.44,1.27.91,2.8,1.41l19.07,6.25c1.19-.49,2-.89,2.43-1.2.43-.31.91-.82,1.43-1.54.25-.35.51-.92.76-1.72l.75.25Z"/><path class="cls-1" d="m466.9,393.38l.69.38-4.97,8.92-.69-.38.53-.95c.55-.99.56-1.99.03-2.98-.24-.47-1.06-1.1-2.46-1.88l-10.23-5.68c-2.53-1.41-4.35-2.75-5.47-4.03-1.12-1.28-1.76-2.92-1.94-4.95-.18-2.02.43-4.29,1.84-6.82,1.53-2.75,3.17-4.57,4.92-5.46,1.75-.89,3.59-1.19,5.54-.89,1.32.22,3.5,1.17,6.54,2.86l9.86,5.48c1.55.86,2.69,1.22,3.4,1.05.72-.16,1.35-.71,1.88-1.67l.53-.95.69.38-6.07,10.88-.69-.38.54-.96c.58-1.04.67-1.96.26-2.78-.28-.55-1.12-1.22-2.53-2.02l-10.99-6.11c-.98-.55-2.15-1.08-3.51-1.61-1.37-.52-2.53-.74-3.5-.67-.97.08-1.93.43-2.88,1.06-.95.63-1.79,1.59-2.5,2.88-.92,1.65-1.38,3.32-1.39,5.02,0,1.7.42,3.1,1.28,4.2.86,1.1,2.62,2.4,5.3,3.89l10.21,5.68c1.57.87,2.66,1.25,3.24,1.12.82-.18,1.49-.75,2.02-1.7l.53-.95Z"/><path class="cls-1" d="m459.61,407.21l-5.03,6-27.92-.37,12.76,10.67c1.36,1.14,2.34,1.69,2.93,1.67.8-.02,1.56-.46,2.29-1.33l.64-.77.6.51-6.45,7.7-.6-.51.66-.78c.79-.93,1.06-1.83.82-2.7-.15-.53-.84-1.31-2.08-2.35l-18.65-15.6.49-.59,30.03.33-13.62-11.39c-1.36-1.14-2.33-1.7-2.92-1.69-.8.03-1.56.48-2.28,1.34l-.66.78-.6-.5,6.45-7.7.6.51-.64.77c-.79.95-1.07,1.85-.83,2.72.15.53.84,1.31,2.09,2.35l15.38,12.87c1.29-.02,2.19-.08,2.71-.22.52-.13,1.15-.43,1.89-.9.36-.23.81-.67,1.35-1.31l.6.51Z"/><path class="cls-1" d="m414.99,453.03l-6.37-6.55.58-.47c2.02,1.27,3.86,1.97,5.51,2.1,2.38.19,4.61-.57,6.69-2.29,2.84-2.33,4.07-5.23,3.7-8.69-.32-2.91-1.56-5.67-3.71-8.28-1.75-2.13-3.76-3.72-6.03-4.8-2.26-1.08-4.4-1.47-6.4-1.19-2,.28-3.7,1-5.1,2.15-.82.67-1.53,1.43-2.12,2.27-.6.84-1.08,1.75-1.46,2.74l5.3,6.43c.92,1.11,1.61,1.78,2.06,1.98.45.2.93.25,1.44.14.5-.11,1.2-.54,2.1-1.28l.51.62-8.62,7.1-.51-.63.41-.34c.86-.71,1.21-1.47,1.06-2.3-.12-.59-.66-1.48-1.65-2.67l-5.61-6.81c.7-1.71,1.53-3.23,2.5-4.56.96-1.33,2.2-2.61,3.69-3.84,4.31-3.54,8.71-4.86,13.22-3.94,3.38.69,6.18,2.38,8.41,5.09,1.62,1.96,2.69,4.22,3.23,6.79.64,3.05.46,5.96-.54,8.71-.84,2.29-2.38,4.36-4.6,6.19-.81.67-1.6,1.21-2.37,1.62-.77.41-1.95.89-3.54,1.45-.8.28-1.31.5-1.52.67-.21.17-.31.41-.3.72.01.31.23.77.66,1.35l-.61.5Z"/><path class="cls-1" d="m385.54,459.74c-1.3.7-2.66.83-4.07.4-1.41-.42-2.47-1.29-3.17-2.58-.69-1.3-.83-2.66-.4-4.06.43-1.41,1.29-2.47,2.59-3.16,1.3-.69,2.66-.83,4.07-.4,1.41.43,2.47,1.28,3.16,2.59.7,1.3.83,2.65.41,4.06-.42,1.41-1.29,2.46-2.6,3.16Z"/></svg>